<?xml version="1.0" encoding="utf-8"?>
<!-- Generator: Adobe Illustrator 22.0.0, SVG Export Plug-In . SVG Version: 6.00 Build 0)  -->
<svg version="1.1" xmlns="http://www.w3.org/2000/svg" xmlns:xlink="http://www.w3.org/1999/xlink" x="0px" y="0px"
	 viewBox="0 0 512 512" style="enable-background:new 0 0 512 512;" xml:space="preserve">
<style type="text/css">
	.st0{fill:#E1902B;}
	.st1{fill:#3D2A3D;}
	.st2{fill:#E7AD84;}
	.st3{fill:#2961A5;}
	.st4{fill:#FFD66C;}
	.st5{fill:#A18FA1;}
	.st6{fill:#DB4646;}
	.st7{fill:#78BEDE;}
	.st8{fill:#43B06D;}
	.st9{fill:#9EC853;}
	.st10{fill:#217D44;}
	.st11{fill:#DBDBDB;}
	.st12{fill:#FFFFFF;}
	.st13{fill:#C41E1E;}
	.st14{fill:#B9BDC2;}
	.st15{fill:#856685;}
	.st16{fill:#E8E8E8;}
	.st17{fill:#BDBDBD;}
	.st18{fill:#839797;}
	.st19{fill:#D9D9D9;}
	.st20{fill:#F0F0F0;}
	.st21{fill:#BFBFBF;}
	.st22{fill:#706470;}
	.st23{fill:#4B1E4C;}
	.st24{fill:#614F61;}
	.st25{fill:#A37352;}
	.st26{fill:#7A6C7A;}
	.st27{fill:#919191;}
	.st28{fill:#6E6E6E;}
	.st29{fill:#B8B8B8;}
	.st30{fill:#FF826E;}
	.st31{fill:#7D5737;}
	.st32{fill:#2E1B17;}
	.st33{fill:#483324;}
	.st34{fill:#9E9E9E;}
	.st35{fill:#7D6F7D;}
	.st36{fill:#6B4A6B;}
	.st37{fill:#4A80C2;}
	.st38{fill:#B34B0F;}
	.st39{fill:#FFC682;}
	.st40{clip-path:url(#SVGID_2_);fill:#DBDBDB;}
	.st41{fill:#FFDBC5;}
	.st42{fill:#E3E3E3;}
	.st43{clip-path:url(#SVGID_4_);}
	.st44{clip-path:url(#SVGID_6_);fill:#DBDBDB;}
	.st45{clip-path:url(#SVGID_8_);}
	.st46{fill:#E8B494;}
	.st47{fill:#F2D7C4;}
	.st48{fill:#5D5660;}
	.st49{fill:#3B2D3F;}
	.st50{fill:#756275;}
	.st51{fill:#E1622B;}
	.st52{fill:#F0E9E9;}
	.st53{fill:#4D917B;}
	.st54{fill:#C4C4C4;}
	.st55{fill:#14855A;}
	.st56{fill:#C21B1B;}
</style>
<g id="Layer_9">
	<path class="st9" d="M512,257.8C511,399.2,395.6,513,254.2,512C112.8,511-1,395.6,0,254.2C1,112.8,116.4-1,257.8,0
		C399.2,1,513,116.4,512,257.8z"/>
</g>
<g id="Layer_7">
	<g>
		<g>
			<path class="st1" d="M423,207.5c0,8.5-6.9,15.5-15.5,15.5h-4.1c-8.5,0-15.5-6.9-15.5-15.5v-0.1c0-8.5,6.9-15.5,15.5-15.5h4.1
				C416.1,192,423,198.9,423,207.5L423,207.5z"/>
			<g>
				<path class="st1" d="M364,316.5c0,3-2.5,5.5-5.5,5.5h-7c-3,0-5.5-2.5-5.5-5.5v-78c0-3,2.5-5.5,5.5-5.5h7c3,0,5.5,2.5,5.5,5.5
					V316.5z"/>
				<path class="st1" d="M292,316.5c0,3-2.5,5.5-5.5,5.5h-7c-3,0-5.5-2.5-5.5-5.5v-78c0-3,2.5-5.5,5.5-5.5h7c3,0,5.5,2.5,5.5,5.5
					V316.5z"/>
				<g>
					<path class="st1" d="M371,241.7c0,16.8-13.6,30.3-30.3,30.3h-62.3c-16.8,0-30.3-13.6-30.3-30.3v-10.3
						c0-16.8,13.6-30.3,30.3-30.3h62.3c16.8,0,30.3,13.6,30.3,30.3V241.7z"/>
					<path class="st1" d="M359.2,208.6c0.5,2.3,0.8,4.7,0.8,7.2v11c0,18.2-13.6,31.2-30.7,31.2h-64c-5,0-9.8-1-14-3.3
						c5,10,15.2,17.3,27.2,17.3H341c16.8,0,30-12.6,30-29.3v-10.1C371,222.8,366.4,214.1,359.2,208.6z"/>
				</g>
				<path class="st1" d="M267,322.5c0,3-2.5,5.5-5.5,5.5h-7c-3,0-5.5-2.5-5.5-5.5v-78c0-3,2.5-5.5,5.5-5.5h7c3,0,5.5,2.5,5.5,5.5
					V322.5z"/>
				<path class="st1" d="M324,265c-0.9,0-1,0.8-2,0.4v57.9c0,3,2.2,4.7,5.2,4.7h6.4c3.1,0,5.4-1.6,5.4-4.7V265H324z"/>
				<g>
					<path class="st1" d="M265.2,203.1c-14.9-1-26-13.1-26.4-28c-0.3-10.6-8.8-10.8-8.5-0.2c0.6,24.3,10.9,43,35,44.7
						C275.9,220.3,275.8,203.8,265.2,203.1L265.2,203.1z"/>
				</g>
				<path class="st1" d="M308.5,216.4c13,0,23.6-6.4,24.4-15.4h-47.8c-0.3,0-0.7,0.3-1,0.3C284.9,209.6,295.5,216.4,308.5,216.4z"/>
				<g>
					<path class="st1" d="M402,217.2c0,7.1-5.7,12.8-12.8,12.8h-32.4c-7.1,0-12.8-5.7-12.8-12.8v-37.4c0-7.1,5.7-12.8,12.8-12.8
						h32.4c7.1,0,12.8,5.7,12.8,12.8V217.2z"/>
					<path class="st1" d="M422.6,204.5c1.4-1.5,2.2-3.5,2.2-5.8c0-4.7-3.8-8.5-8.5-8.5c-2.5,0-4.7,1.1-6.3,2.8
						C414.4,196.7,418.5,200.5,422.6,204.5z"/>
				</g>
				<path class="st1" d="M303.8,231.6c0,4-4.9,7.2-10.9,7.2c-6,0-10.9-3.2-10.9-7.2c0-4,4.9-7.2,10.9-7.2
					C299,224.4,303.8,227.6,303.8,231.6z"/>
				<path class="st1" d="M299.4,322c0.4-1,0.6-1.9,0.6-3c0-5-4.1-9-9.1-9h-8.6c-5,0-9.1,4-9.1,9c0,1.1,0.2,2,0.6,3H299.4z"/>
				<path class="st1" d="M277.7,328c0.4-1,0.6-2.2,0.6-3.3c0-5.3-4.3-9.7-9.7-9.7h-9.1c-5.3,0-9.7,4.3-9.7,9.7
					c0,1.2,0.2,2.3,0.6,3.3H277.7z"/>
				<path class="st1" d="M373.1,320c0.4,0,0.6-1.9,0.6-3c0-5-4.1-9-9.1-9H356c-5,0-9.1,4-9.1,9c0,1.1,0.2,3,0.6,3H373.1z"/>
				<path class="st1" d="M349,328c0.4-1,0.6-2.2,0.6-3.3c0-5.3-4.3-9.7-9.7-9.7h-9.1c-5.3,0-9.7,4.3-9.7,9.7c0,1.2,0.2,2.3,0.6,3.3
					H349z"/>
			</g>
			<path class="st1" d="M355.9,173.7l18.1,61.2c0.3,11.7-7,21.6-16.4,22.1l-1.2,0.1c-9.4,0.5-17.2-8.6-17.5-20.4l14.7-62.9
				L355.9,173.7z"/>
			<g>
				<path class="st1" d="M420.8,207.7c-5.1,0.9-10.1-0.8-13.9-4.2c-2.7-2.4,7.4,1.5,10.1,3.9c5.4,4.8-1.8,6.9,5.3,5.6
					C425.8,212.4,424.3,207.1,420.8,207.7L420.8,207.7z"/>
			</g>
			<path class="st1" d="M395.1,194.7c0,3.4-2.8,6.2-6.2,6.2c-3.4,0-6.2-2.8-6.2-6.2c0-3.4,2.8-6.2,6.2-6.2
				C392.4,188.5,395.1,191.3,395.1,194.7z"/>
		</g>
		<g>
			<g>
				<path class="st1" d="M163.8,312c-5.7,0.7-11.9,0.6-16.9-0.3c-4.8-0.8-9.9-2.4-13.8-4.2c-8.9-4.2-16.3-10.5-21.5-18.2
					c-2.8-4.2-4.6-7.9-6-12.4c-1.6-5-2.2-8.9-2.3-13.9c-0.2-11.7,4.1-23.3,11.7-32.2c2.2-2.6,2.5-6.2,0-8.7c-2.2-2.2-6.5-2.6-8.7,0
					c-9.5,11.1-14.9,24.7-15.3,39.3c-0.3,11.8,3.3,23.6,9.6,33.6c13.4,21,38.6,32.2,63.2,29.4c3.3-0.4,6.1-2.5,6.1-6.1
					C169.9,315.1,167.1,311.6,163.8,312L163.8,312z"/>
			</g>
			<rect x="167" y="222" class="st1" width="21" height="56"/>
			<path class="st1" d="M203,324v-52.9c0-11.9-9.2-21.1-21.1-21.1h-9.1c-11.9,0-21.8,9.2-21.8,21.1V324H203z"/>
			<g>
				<path class="st1" d="M170.7,324c0.2-1,0.3-2.3,0.3-3.7c0-13.7-9-39.6-20.1-39.6c-11.1,0-20.1,25.8-20.1,39.5
					c0,1.3,0.1,2.7,0.2,3.7H170.7z"/>
				<path class="st1" d="M223.7,324c0.2-1,0.3-2.3,0.3-3.7c0-13.7-9-39.6-20.1-39.6c-11.1,0-20.1,25.8-20.1,39.5
					c0,1.3,0.1,2.7,0.3,3.7H223.7z"/>
			</g>
			<path class="st1" d="M192.2,326c1.8-7,2.8-13.8,2.8-21.8c0-22.3-7.9-40.4-17.6-40.4s-17.6,18.2-17.6,40.4c0,8,1,14.8,2.8,21.8
				H192.2z"/>
			<g>
				<path class="st1" d="M171.7,328c0.2-1,0.3-1.9,0.3-3c0-10.4-8.4-18.6-18.7-18.6c-10.4,0-18.7,8.2-18.7,18.6
					c0,1.1,0.1,2.1,0.3,3.1H171.7z"/>
				<path class="st1" d="M219.9,328c0.2-1,0.3-1.9,0.3-3c0-10.4-8.4-18.6-18.7-18.6c-10.4,0-18.7,8.2-18.7,18.6
					c0,1.1,0.1,2.1,0.3,3.1H219.9z"/>
			</g>
			<g>
				<g>
					<g>
						<path class="st1" d="M139.9,204.5c0.4,4.6,3.5,5.8,6.9,2.7l17-15.2c3.4-3,2.7-6.9-1.5-8.6l-17.3-6.9c-4.3-1.7-7.4,0.7-7,5.2
							L139.9,204.5z"/>
						<path class="st1" d="M144.6,202.8c0.3,3.1,2.4,3.9,4.7,1.9l11.5-10.3c2.3-2.1,1.8-4.7-1-5.8l-11.7-4.7c-2.9-1.1-5,0.4-4.7,3.5
							L144.6,202.8z"/>
					</g>
					<g>
						<path class="st1" d="M214.8,204.5c-0.4,4.6-3.5,5.8-6.9,2.7l-17-15.2c-3.4-3-2.7-6.9,1.5-8.6l17.3-6.9c4.3-1.7,7.4,0.7,7,5.2
							L214.8,204.5z"/>
						<path class="st1" d="M210,202.8c-0.3,3.1-2.4,3.9-4.7,1.9l-11.5-10.3c-2.3-2.1-1.8-4.7,1-5.8l11.7-4.7c2.9-1.1,5,0.4,4.7,3.5
							L210,202.8z"/>
					</g>
				</g>
				<g>
					<ellipse class="st1" cx="177.3" cy="228.7" rx="41.4" ry="19"/>
					<path class="st1" d="M211,242v-28.6c0-16.3-14.8-29.6-33-29.6c-18.2,0-33,13.2-33,29.6V242H211z"/>
				</g>
				<g>
					<path class="st1" d="M169.9,214.1c0,1.9-1.6,3.5-3.5,3.5c-1.9,0-3.5-1.6-3.5-3.5c0-1.9,1.6-3.5,3.5-3.5
						C168.3,210.6,169.9,212.2,169.9,214.1z"/>
					<path class="st1" d="M191.8,214.1c0,1.9-1.6,3.5-3.5,3.5c-1.9,0-3.5-1.6-3.5-3.5c0-1.9,1.6-3.5,3.5-3.5
						C190.2,210.6,191.8,212.2,191.8,214.1z"/>
				</g>
				<g>
					<path class="st1" d="M180,200c0-5,0-10.7,0-16.1c-1-0.1-1.6-0.1-2.5-0.1c-0.9,0-1.5,0-2.5,0.1c0,5.4,0,11.1,0,16.1
						C175,204,180,204,180,200z"/>
					<path class="st1" d="M163.2,200.5c0.9,3.3,6,1.9,5.1-1.4c-1.3-4.9-0.7-10,1.5-14.5c-2.2,0.5-4.4,1.1-6.4,2
						C162.1,191.1,162,195.9,163.2,200.5z"/>
					<path class="st1" d="M186.3,199.1c-0.9,3.3,4.3,4.7,5.1,1.4c1.2-4.6,1.1-9.4-0.2-14c-2-0.8-4.2-1.5-6.4-2
						C187,189.1,187.6,194.2,186.3,199.1z"/>
				</g>
				<path class="st1" d="M177.3,253.1c17.2,0,32.1-5.6,39.2-13.6c-7.1-8.1-22-13.6-39.2-13.6c-17.2,0-32.1,5.6-39.2,13.6
					C145.3,247.5,160.1,253.1,177.3,253.1z"/>
				<g>
					<path class="st1" d="M192,235c0,4.4-3.6,8-8,8h-14c-4.4,0-8-3.6-8-8l0,0c0-4.4,3.6-8,8-8h14C188.4,227,192,230.6,192,235
						L192,235z"/>
					<path class="st1" d="M188,227.7c0,4.7-4.8,8.6-10.6,8.6c-5.9,0-10.6-3.8-10.6-8.6c0-4.7,4.8-8.6,10.6-8.6
						C183.2,219.2,188,223,188,227.7z"/>
					<g>
						<path class="st1" d="M183.1,234.6c-0.1,3.3-2.6,5.8-5.9,5.9c-3.3,0.1-5.8-2.7-5.9-5.9c0-2-3.2-2-3.1,0c0.1,5,4,8.9,9,9
							c5,0.1,8.9-4.2,9-9C186.3,232.6,183.1,232.6,183.1,234.6L183.1,234.6z"/>
					</g>
					<g>
						<g>
							<path class="st1" d="M184.5,224.5c0,2.1-7.3,6-7.3,6s-7.3-4-7.3-6c0-2.1,3.3-2.6,7.3-2.6S184.5,222.4,184.5,224.5z"/>
							<path class="st1" d="M179,238.5c0,0.8-0.7,1.5-1.5,1.5l0,0c-0.8,0-1.5-0.7-1.5-1.5v-10c0-0.8,0.7-1.5,1.5-1.5l0,0
								c0.8,0,1.5,0.7,1.5,1.5V238.5z"/>
						</g>
					</g>
				</g>
			</g>
		</g>
	</g>
</g>
</svg>
